HIERARCHY
ROOT Hips
{
	OFFSET 0.000000 100.052002 0.000000
	CHANNELS 6 Xposition Yposition Zposition Xrotation Yrotation Zrotation
	JOINT Spine
	{
		OFFSET 0.000000 9.717300 -1.180200
		CHANNELS 6 Xposition Yposition Zposition Xrotation Yrotation Zrotation
		JOINT Spine1
		{
			OFFSET 0.000000 11.336784 -1.376941
			CHANNELS 3 Xrotation Yrotation Zrotation
			JOINT Spine2
			{
				OFFSET 0.000000 12.956383 -1.573654
				CHANNELS 3 Xrotation Yrotation Zrotation
				JOINT Neck
				{
					OFFSET 0.000000 14.575882 -1.770355
					CHANNELS 6 Xposition Yposition Zposition Xrotation Yrotation Zrotation
					JOINT Head
					{
						OFFSET 0.000000 6.720200 1.972200
						CHANNELS 6 Xposition Yposition Zposition Xrotation Yrotation Zrotation
						JOINT HeadTop_End
						{
							OFFSET 0.000000 20.999802 6.162800
							CHANNELS 6 Xposition Yposition Zposition Xrotation Yrotation Zrotation
							End Site
							{
								OFFSET 0.000000 21.885422 0.000000
							}
						}
					}
				}
				JOINT LeftShoulder
				{
					OFFSET 6.140200 12.877686 -1.799413
					CHANNELS 6 Xposition Yposition Zposition Xrotation Yrotation Zrotation
					JOINT LeftArm
					{
						OFFSET 12.558889 -3.380020 -0.058110
						CHANNELS 3 Xrotation Yrotation Zrotation
						JOINT LeftForeArm
						{
							OFFSET 25.560802 0.000000 0.000000
							CHANNELS 3 Xrotation Yrotation Zrotation
							JOINT LeftHand
							{
								OFFSET 23.404095 0.000000 0.000000
								CHANNELS 3 Xrotation Yrotation Zrotation
								JOINT LeftHandThumb1
								{
									OFFSET 4.128799 -1.207092 2.573364
									CHANNELS 6 Xposition Yposition Zposition Xrotation Yrotation Zrotation
									JOINT LeftHandThumb2
									{
										OFFSET 3.106247 -1.793396 1.793392
										CHANNELS 6 Xposition Yposition Zposition Xrotation Yrotation Zrotation
										JOINT LeftHandThumb3
										{
											OFFSET 2.788620 -1.610016 1.610011
											CHANNELS 6 Xposition Yposition Zposition Xrotation Yrotation Zrotation
											JOINT LeftHandThumb4
											{
												OFFSET 2.332939 -1.346924 1.346924
												CHANNELS 6 Xposition Yposition Zposition Xrotation Yrotation Zrotation
												End Site
												{
													OFFSET 2.098068 -1.306122 1.721387
												}
											}
										}
									}
								}
								JOINT LeftHandIndex1
								{
									OFFSET 11.999931 -0.333878 2.508170
									CHANNELS 6 Xposition Yposition Zposition Xrotation Yrotation Zrotation
									JOINT LeftHandIndex2
									{
										OFFSET 3.298477 0.000000 0.000000
										CHANNELS 6 Xposition Yposition Zposition Xrotation Yrotation Zrotation
										JOINT LeftHandIndex3
										{
											OFFSET 3.081009 0.000000 0.000000
											CHANNELS 6 Xposition Yposition Zposition Xrotation Yrotation Zrotation
											JOINT LeftHandIndex4
											{
												OFFSET 2.712151 0.000000 0.000000
												CHANNELS 6 Xposition Yposition Zposition Xrotation Yrotation Zrotation
												End Site
												{
													OFFSET 2.712097 -0.000549 -0.016291
												}
											}
										}
									}
								}
								JOINT LeftHandMiddle1
								{
									OFFSET 12.393951 0.000000 0.000000
									CHANNELS 6 Xposition Yposition Zposition Xrotation Yrotation Zrotation
									JOINT LeftHandMiddle2
									{
										OFFSET 3.432213 0.000000 0.000000
										CHANNELS 6 Xposition Yposition Zposition Xrotation Yrotation Zrotation
										JOINT LeftHandMiddle3
										{
											OFFSET 3.160919 0.000000 0.000000
											CHANNELS 6 Xposition Yposition Zposition Xrotation Yrotation Zrotation
											JOINT LeftHandMiddle4
											{
												OFFSET 2.876404 0.000000 0.000000
												CHANNELS 3 Xrotation Yrotation Zrotation
												End Site
												{
													OFFSET 2.876404 0.000000 0.000000
												}
											}
										}
									}
								}
								JOINT LeftHandRing1
								{
									OFFSET 12.360489 -0.116104 -2.298636
									CHANNELS 6 Xposition Yposition Zposition Xrotation Yrotation Zrotation
									JOINT LeftHandRing2
									{
										OFFSET 2.726105 0.000000 0.000000
										CHANNELS 6 Xposition Yposition Zposition Xrotation Yrotation Zrotation
										JOINT LeftHandRing3
										{
											OFFSET 2.620300 0.000000 0.000000
											CHANNELS 6 Xposition Yposition Zposition Xrotation Yrotation Zrotation
											JOINT LeftHandRing4
											{
												OFFSET 2.226906 0.000000 0.000000
												CHANNELS 6 Xposition Yposition Zposition Xrotation Yrotation Zrotation
												End Site
												{
													OFFSET 2.226898 0.000153 0.003196
												}
											}
										}
									}
								}
								JOINT LeftHandPinky1
								{
									OFFSET 10.793266 -0.303589 -4.149957
									CHANNELS 6 Xposition Yposition Zposition Xrotation Yrotation Zrotation
									JOINT LeftHandPinky2
									{
										OFFSET 2.734612 0.000000 0.000000
										CHANNELS 6 Xposition Yposition Zposition Xrotation Yrotation Zrotation
										JOINT LeftHandPinky3
										{
											OFFSET 2.194000 0.000000 0.000000
											CHANNELS 6 Xposition Yposition Zposition Xrotation Yrotation Zrotation
											JOINT LeftHandPinky4
											{
												OFFSET 1.975510 0.000000 0.000000
												CHANNELS 6 Xposition Yposition Zposition Xrotation Yrotation Zrotation
												End Site
												{
													OFFSET 1.975502 -0.000275 -0.005493
												}
											}
										}
									}
								}
							}
						}
					}
				}
				JOINT RightShoulder
				{
					OFFSET -6.140200 12.877701 -1.741290
					CHANNELS 6 Xposition Yposition Zposition Xrotation Yrotation Zrotation
					JOINT RightArm
					{
						OFFSET -12.558887 -3.380020 0.058096
						CHANNELS 3 Xrotation Yrotation Zrotation
						JOINT RightForeArm
						{
							OFFSET -25.571100 0.000000 -0.000001
							CHANNELS 3 Xrotation Yrotation Zrotation
							JOINT RightHand
							{
								OFFSET -23.401703 0.000000 -0.000001
								CHANNELS 3 Xrotation Yrotation Zrotation
								JOINT RightHandThumb1
								{
									OFFSET -4.237885 -1.241806 2.593891
									CHANNELS 6 Xposition Yposition Zposition Xrotation Yrotation Zrotation
									JOINT RightHandThumb2
									{
										OFFSET -3.173721 -1.832352 1.832350
										CHANNELS 6 Xposition Yposition Zposition Xrotation Yrotation Zrotation
										JOINT RightHandThumb3
										{
											OFFSET -2.734779 -1.578934 1.578928
											CHANNELS 6 Xposition Yposition Zposition Xrotation Yrotation Zrotation
											JOINT RightHandThumb4
											{
												OFFSET -2.254745 -1.301773 1.301779
												CHANNELS 6 Xposition Yposition Zposition Xrotation Yrotation Zrotation
												End Site
												{
													OFFSET -2.004616 -1.260025 1.693210
												}
											}
										}
									}
								}
								JOINT RightHandIndex1
								{
									OFFSET -12.582405 -0.171967 2.675169
									CHANNELS 6 Xposition Yposition Zposition Xrotation Yrotation Zrotation
									JOINT RightHandIndex2
									{
										OFFSET -3.117424 0.000000 0.000000
										CHANNELS 6 Xposition Yposition Zposition Xrotation Yrotation Zrotation
										JOINT RightHandIndex3
										{
											OFFSET -2.856110 0.000000 0.000000
											CHANNELS 6 Xposition Yposition Zposition Xrotation Yrotation Zrotation
											JOINT RightHandIndex4
											{
												OFFSET -2.534607 0.000000 0.000000
												CHANNELS 6 Xposition Yposition Zposition Xrotation Yrotation Zrotation
												End Site
												{
													OFFSET -2.534599 -0.000092 -0.005299
												}
											}
										}
									}
								}
								JOINT RightHandMiddle1
								{
									OFFSET -12.213303 0.000000 -0.000000
									CHANNELS 6 Xposition Yposition Zposition Xrotation Yrotation Zrotation
									JOINT RightHandMiddle2
									{
										OFFSET -3.479240 0.000000 0.000000
										CHANNELS 6 Xposition Yposition Zposition Xrotation Yrotation Zrotation
										JOINT RightHandMiddle3
										{
											OFFSET -3.226028 0.000000 0.000000
											CHANNELS 6 Xposition Yposition Zposition Xrotation Yrotation Zrotation
											JOINT RightHandMiddle4
											{
												OFFSET -2.928001 0.000000 0.000000
												CHANNELS 6 Xposition Yposition Zposition Xrotation Yrotation Zrotation
												End Site
												{
													OFFSET -2.927994 -0.000046 -0.002500
												}
											}
										}
									}
								}
								JOINT RightHandRing1
								{
									OFFSET -12.155838 -0.109528 -2.139221
									CHANNELS 6 Xposition Yposition Zposition Xrotation Yrotation Zrotation
									JOINT RightHandRing2
									{
										OFFSET -2.821602 0.000000 0.000000
										CHANNELS 6 Xposition Yposition Zposition Xrotation Yrotation Zrotation
										JOINT RightHandRing3
										{
											OFFSET -2.687714 0.000000 0.000000
											CHANNELS 6 Xposition Yposition Zposition Xrotation Yrotation Zrotation
											JOINT RightHandRing4
											{
												OFFSET -2.368401 0.000000 0.000000
												CHANNELS 6 Xposition Yposition Zposition Xrotation Yrotation Zrotation
												End Site
												{
													OFFSET -2.368408 0.000122 0.004098
												}
											}
										}
									}
								}
								JOINT RightHandPinky1
								{
									OFFSET -10.912514 -0.136993 -4.154601
									CHANNELS 6 Xposition Yposition Zposition Xrotation Yrotation Zrotation
									JOINT RightHandPinky2
									{
										OFFSET -2.640511 0.000000 0.000000
										CHANNELS 6 Xposition Yposition Zposition Xrotation Yrotation Zrotation
										JOINT RightHandPinky3
										{
											OFFSET -2.149010 0.000000 0.000000
											CHANNELS 6 Xposition Yposition Zposition Xrotation Yrotation Zrotation
											JOINT RightHandPinky4
											{
												OFFSET -1.888405 0.000000 0.000000
												CHANNELS 6 Xposition Yposition Zposition Xrotation Yrotation Zrotation
												End Site
												{
													OFFSET -1.888397 -0.000076 -0.002499
												}
											}
										}
									}
								}
							}
						}
					}
				}
			}
		}
	}
	JOINT LeftUpLeg
	{
		OFFSET 8.078200 -5.402397 -0.535900
		CHANNELS 6 Xposition Yposition Zposition Xrotation Yrotation Zrotation
		JOINT LeftLeg
		{
			OFFSET 0.166247 -42.704498 -2.695473
			CHANNELS 3 Xrotation Yrotation Zrotation
			JOINT LeftFoot
			{
				OFFSET -0.166255 -42.074757 -2.882279
				CHANNELS 3 Xrotation Yrotation Zrotation
				JOINT LeftToeBase
				{
					OFFSET 1.133370 -9.116460 13.321884
					CHANNELS 3 Xrotation Yrotation Zrotation
					JOINT LeftToe_End
					{
						OFFSET 0.591577 -0.054453 6.177401
						CHANNELS 3 Xrotation Yrotation Zrotation
						End Site
						{
							OFFSET 0.591577 -0.054453 6.177402
						}
					}
				}
			}
		}
	}
	JOINT RightUpLeg
	{
		OFFSET -8.078200 -5.402397 -0.751800
		CHANNELS 6 Xposition Yposition Zposition Xrotation Yrotation Zrotation
		JOINT RightLeg
		{
			OFFSET -0.166221 -42.704521 -2.464558
			CHANNELS 3 Xrotation Yrotation Zrotation
			JOINT RightFoot
			{
				OFFSET 0.166220 -42.074753 -2.968993
				CHANNELS 3 Xrotation Yrotation Zrotation
				JOINT RightToeBase
				{
					OFFSET -1.133402 -9.116828 13.416508
					CHANNELS 3 Xrotation Yrotation Zrotation
					JOINT RightToe_End
					{
						OFFSET -0.591581 -0.054615 6.151378
						CHANNELS 3 Xrotation Yrotation Zrotation
						End Site
						{
							OFFSET -0.591581 -0.054615 6.151378
						}
					}
				}
			}
		}
	}
}
MOTION
Frames: 4
Frame Time: 0.033333
-1.131139 81.628937 128.848602 -14.546776 -1.055018 -3.147075 -0.000001 9.717301 -1.180195 20.254494 2.833222 -2.240410 8.638282 0.623399 3.070069 8.612955 0.734705 3.099617 0.000000 14.575878 -1.770347 -6.226457 -9.429086 8.319600 -0.000003 6.720181 1.972193 -6.226424 -9.429076 8.319589 -0.000000 20.999802 6.162829 -0.000001 -0.000004 0.000001 6.140198 12.877705 -1.799400 0.706149 -4.073638 11.658902 -40.459121 -9.927312 -35.271011 -0.000005 -8.647411 0.000001 11.678472 1.073511 11.929599 4.128800 -1.207085 2.573349 -1.892369 16.635349 8.126273 3.106246 -1.793391 1.793395 4.973036 20.947061 1.680433 2.788626 -1.609987 1.610004 -0.579464 1.575004 2.538706 2.332939 -1.346937 1.346936 -0.000001 0.000000 -0.000000 11.999928 -0.333856 2.508143 0.003902 -0.232343 1.925627 3.298481 0.000005 -0.000004 0.042928 0.769298 -6.388223 3.081011 0.000003 0.000023 0.143100 1.399209 -11.677294 2.712177 -0.000002 0.000011 0.000001 0.000000 -0.000001 12.393937 0.000007 -0.000016 0.002020 0.167185 -1.385374 3.432218 0.000011 -0.000016 0.110391 1.230435 -10.252175 3.160932 0.000026 0.000005 0.254492 1.858246 -15.595287 -0.000000 0.000003 -0.000002 12.360477 -0.116082 -2.298648 0.031946 0.663910 -5.510058 2.726101 -0.000014 0.000004 0.245112 1.824302 -15.303092 2.620283 -0.000014 -0.000002 0.436876 2.417895 -20.480893 2.226884 0.000009 0.000008 0.000003 0.000002 0.000003 10.793249 -0.303564 -4.149988 0.702129 5.086962 -8.507973 2.734622 -0.000013 -0.000003 0.396146 -1.758194 -19.917897 2.193989 0.000021 -0.000018 0.611675 2.841840 -24.288872 1.975486 -0.000061 0.000006 -0.000001 -0.000001 0.000000 -6.140199 12.877714 -1.741282 0.865383 5.030750 -1.580520 -40.542538 63.057652 69.046703 -0.000003 99.450218 -0.000055 10.386261 0.641804 -17.133591 -4.237889 -1.241836 2.593885 -4.151978 -14.020102 -16.303805 -3.173733 -1.832344 1.832352 15.239952 -19.689465 21.606414 -2.734791 -1.578931 1.578943 -1.273755 0.137309 -2.094869 -2.254748 -1.301747 1.301796 0.000002 -0.000004 0.000004 -12.582403 -0.172011 2.675169 0.026940 0.612906 -5.035981 -3.117422 0.000026 -0.000003 0.005569 -0.279104 2.290840 -2.856107 0.000028 0.000012 0.029202 -0.637716 5.240339 -2.534616 0.000020 -0.000002 0.000005 0.000000 0.000001 -12.213308 -0.000020 0.000002 0.002301 0.179642 -1.474285 -3.479248 -0.000004 0.000006 0.034966 -0.697952 5.737074 -3.226030 -0.000057 0.000007 0.090695 -1.121626 9.244898 -2.928005 0.000002 -0.000016 0.000002 0.000002 -0.000001 -12.155849 -0.109575 -2.139222 0.008603 -0.346724 2.846219 -2.821620 0.000033 -0.000005 0.113294 -1.252592 10.336075 -2.687704 -0.000002 -0.000003 0.213710 -1.713935 14.213449 -2.368393 0.000031 -0.000015 0.000004 0.000000 -0.000000 -10.912501 -0.137015 -4.154601 0.044016 -0.782800 6.437343 -2.640494 0.000005 0.000000 0.209566 -1.697571 14.074787 -2.149013 -0.000015 0.000016 0.346388 -2.171278 18.126101 -1.888405 -0.000046 0.000002 -0.000001 -0.000000 -0.000000 8.078201 -5.402401 -0.535896 -21.316163 22.947844 20.145482 74.392863 6.939883 6.362027 -40.956683 12.527458 -10.931214 -0.394668 0.000008 0.000002 -0.000000 -0.000004 -0.000000 -8.078197 -5.402392 -0.751786 -80.056763 -22.768828 -21.714269 93.584411 -8.370832 6.286975 53.590252 -8.216480 2.426304 3.261904 -0.000003 0.000009 -0.000000 0.000004 0.000002 
-2.474881 84.218277 130.393158 -17.358429 -1.694091 -5.765735 0.000001 9.717293 -1.180217 24.637971 4.248622 -0.323367 5.942001 0.680564 3.984273 5.908110 0.827613 3.992782 0.000001 14.575874 -1.770361 -6.007463 -9.916571 8.663982 -0.000003 6.720207 1.972184 -6.007457 -9.916566 8.663989 0.000003 20.999817 6.162813 -0.000000 0.000002 -0.000000 6.140199 12.877682 -1.799426 0.403870 -2.558549 14.670379 -43.461436 -8.769225 -31.021070 -0.000012 -8.607664 -0.000002 16.301759 1.641410 12.789109 4.128793 -1.207090 2.573370 -1.892368 16.635346 8.126276 3.106260 -1.793388 1.793390 4.973035 20.947061 1.680436 2.788612 -1.610035 1.610015 -0.579463 1.575011 2.538715 2.332954 -1.346939 1.346907 0.000001 0.000003 -0.000000 11.999934 -0.333885 2.508181 0.003816 -0.229731 1.903967 3.298467 -0.000001 0.000004 0.049515 0.825975 -6.861134 3.081008 -0.000005 -0.000019 0.139439 1.381389 -11.526461 2.712151 -0.000001 -0.000003 -0.000000 0.000003 -0.000000 12.393945 -0.000003 0.000001 0.001562 0.147019 -1.218383 3.432209 -0.000007 -0.000019 0.116473 1.263611 -10.531583 3.160940 0.000026 -0.000009 0.251405 1.847176 -15.499893 -0.000000 0.000001 0.000001 12.360474 -0.116085 -2.298632 0.027455 0.615553 -5.107765 2.726095 -0.000005 -0.000021 0.246659 1.829968 -15.351830 2.620308 -0.000001 -0.000007 0.434725 2.412101 -20.429594 2.226907 -0.000032 0.000015 0.000000 0.000003 -0.000001 10.793242 -0.303574 -4.149962 0.648725 5.021298 -7.901776 2.734601 0.000006 0.000004 0.391390 -1.771383 -19.801909 2.194005 0.000026 -0.000003 0.610732 2.839766 -24.269887 1.975505 -0.000019 0.000008 0.000001 0.000000 -0.000001 -6.140200 12.877712 -1.741300 0.613308 3.083317 -4.186128 -41.583725 60.554599 62.462927 -0.000005 108.595541 0.000002 9.438125 1.114997 -17.034531 -4.237889 -1.241805 2.593881 -4.151975 -14.020102 -16.303805 -3.173725 -1.832330 1.832342 15.239957 -19.689472 21.606416 -2.734807 -1.578881 1.578928 -1.273755 0.137305 -2.094869 -2.254740 -1.301775 1.301785 -0.000002 -0.000007 -0.000003 -12.582410 -0.171961 2.675140 0.042121 0.765794 -6.296830 -3.117417 0.000008 0.000006 0.005754 -0.283538 2.327250 -2.856123 0.000013 0.000004 0.031207 -0.659391 5.419020 -2.534599 0.000003 -0.000013 -0.000000 -0.000002 -0.000000 -12.213305 0.000038 -0.000013 0.004754 0.257521 -2.113579 -3.479240 0.000009 0.000003 0.033843 -0.686724 5.644450 -3.226035 -0.000018 0.000015 0.091624 -1.127317 9.292112 -2.927997 -0.000014 0.000002 -0.000001 -0.000000 -0.000002 -12.155833 -0.109513 -2.139243 0.009252 -0.359439 2.950789 -2.821609 -0.000022 0.000011 0.109075 -1.229196 10.140688 -2.687701 0.000007 -0.000031 0.209771 -1.698336 14.081474 -2.368398 0.000003 0.000008 -0.000004 0.000000 -0.000001 -10.912497 -0.136981 -4.154613 0.054324 -0.869269 7.152027 -2.640526 0.000015 -0.000010 0.200491 -1.660889 13.764509 -2.149024 -0.000001 -0.000017 0.336544 -2.141019 17.864560 -1.888405 0.000000 -0.000020 0.000002 0.000000 0.000000 8.078202 -5.402406 -0.535925 -16.267567 24.391121 24.598489 68.252161 6.238712 5.954334 -38.145783 10.784288 -12.547362 -0.023674 -0.000003 0.000002 -0.000000 -0.000003 0.000000 -8.078197 -5.402386 -0.751822 -84.347440 -22.253448 -25.729763 100.722211 -7.988381 6.455018 54.420891 -5.715522 3.655854 4.978346 -0.000011 -0.000016 -0.000003 0.000003 -0.000004 
-3.620127 88.334389 133.154205 -17.853860 -4.509737 -8.599720 -0.000001 9.717281 -1.180218 25.319894 6.532030 4.156667 2.920699 0.806967 3.316456 2.896671 0.924213 3.303667 0.000000 14.575879 -1.770346 -5.222819 -10.013097 8.404286 -0.000000 6.720204 1.972203 -5.222783 -10.013095 8.404287 0.000002 20.999802 6.162805 0.000000 -0.000000 0.000000 6.140194 12.877688 -1.799411 0.071018 -1.305989 17.468839 -42.802630 -4.658832 -28.715194 0.000000 -8.562332 0.000002 22.120688 2.555537 13.195023 4.128804 -1.207068 2.573367 -1.892369 16.635346 8.126270 3.106230 -1.793388 1.793372 4.973034 20.947060 1.680433 2.788595 -1.610031 1.610029 -0.579463 1.575006 2.538709 2.332950 -1.346953 1.346900 0.000001 0.000003 0.000002 11.999942 -0.333852 2.508176 0.010406 -0.379123 3.143121 3.298454 0.000018 0.000006 0.057329 0.888531 -7.383667 3.080986 -0.000008 -0.000003 0.139807 1.383219 -11.542040 2.712136 0.000000 0.000036 0.000001 -0.000002 -0.000000 12.393943 -0.000013 -0.000001 0.000168 0.047931 -0.397211 3.432208 0.000002 0.000013 0.121733 1.291558 -10.767380 3.160948 -0.000017 -0.000036 0.252264 1.850244 -15.526475 0.000000 -0.000002 0.000000 12.360492 -0.116085 -2.298625 0.024020 0.575752 -4.776686 2.726105 -0.000026 0.000004 0.244982 1.823852 -15.299330 2.620295 0.000013 0.000055 0.434689 2.412032 -20.428922 2.226909 -0.000028 0.000003 0.000001 0.000001 -0.000001 10.793270 -0.303541 -4.149960 0.654210 5.028098 -7.964443 2.734619 -0.000009 0.000017 0.379561 -1.804485 -19.510983 2.193999 0.000018 -0.000009 0.610169 2.838525 -24.258568 1.975504 -0.000027 -0.000011 -0.000001 -0.000001 -0.000001 -6.140197 12.877728 -1.741282 0.362866 1.655389 -6.538419 -39.073118 57.215562 57.294765 -0.000012 112.781894 0.000003 11.342620 1.337714 -16.323020 -4.237893 -1.241801 2.593887 -4.151975 -14.020103 -16.303800 -3.173733 -1.832340 1.832327 15.239952 -19.689467 21.606419 -2.734789 -1.578940 1.578941 -1.273756 0.137309 -2.094867 -2.254735 -1.301770 1.301787 0.000003 -0.000003 -0.000001 -12.582407 -0.171977 2.675195 0.058444 0.901405 -7.417945 -3.117416 -0.000012 -0.000004 0.004007 -0.236522 1.941144 -2.856124 -0.000002 0.000002 0.033380 -0.681901 5.604656 -2.534595 0.000020 -0.000008 -0.000002 -0.000001 0.000001 -12.213314 0.000004 0.000013 0.007474 0.322787 -2.649682 -3.479249 0.000026 -0.000011 0.030665 -0.653726 5.372311 -3.226032 -0.000016 0.000017 0.092568 -1.133111 9.340417 -2.927995 -0.000028 0.000000 -0.000001 0.000000 -0.000003 -12.155845 -0.109512 -2.139209 0.010325 -0.379599 3.116447 -2.821621 0.000005 0.000001 0.107182 -1.218594 10.052249 -2.687699 -0.000000 0.000026 0.206322 -1.684554 13.964666 -2.368398 0.000016 0.000005 -0.000002 0.000000 -0.000001 -10.912513 -0.137009 -4.154590 0.066182 -0.958982 7.894763 -2.640511 0.000010 0.000005 0.201406 -1.664684 13.796565 -2.149011 -0.000020 0.000011 0.327390 -2.112399 17.617600 -1.888405 -0.000030 -0.000004 0.000000 0.000000 0.000000 8.078198 -5.402417 -0.535910 -8.245083 24.601324 24.495138 56.874282 5.553682 3.824507 -32.911089 14.428293 -12.834115 -1.449990 0.000017 0.000008 0.000000 0.000005 0.000000 -8.078198 -5.402407 -0.751812 -87.876654 -22.028426 -28.524839 110.269511 -7.320848 5.914777 51.099688 -5.435559 3.633177 5.887910 0.000010 -0.000019 -0.000001 0.000000 -0.000002 
-5.040491 93.249405 136.482529 -15.063665 -8.864623 -10.226931 0.000000 9.717294 -1.180185 20.890364 8.597157 9.650542 0.737749 1.023196 1.477914 0.746285 1.072271 1.448823 0.000000 14.575863 -1.770346 -3.877767 -9.832036 8.030148 -0.000004 6.720189 1.972214 -3.877772 -9.832041 8.030144 -0.000005 20.999817 6.162813 -0.000000 -0.000002 0.000002 6.140193 12.877698 -1.799404 -0.117683 -0.752178 19.358795 -40.533006 2.362283 -26.432909 -0.000001 -8.536488 -0.000006 27.057948 3.439007 13.305057 4.128803 -1.207072 2.573359 -1.892370 16.635341 8.126275 3.106245 -1.793406 1.793405 4.973034 20.947060 1.680433 2.788597 -1.610033 1.610029 -0.579464 1.575009 2.538715 2.332935 -1.346953 1.346896 -0.000000 0.000002 0.000002 11.999922 -0.333873 2.508167 0.024049 -0.576184 4.780204 3.298470 0.000010 -0.000004 0.057500 0.889821 -7.394500 3.080987 0.000026 0.000008 0.145579 1.411164 -11.778602 2.712150 -0.000015 0.000007 -0.000000 0.000002 0.000000 12.393935 0.000005 -0.000024 0.000193 -0.051579 0.427516 3.432210 -0.000011 0.000010 0.119160 1.277993 -10.652994 3.160937 -0.000002 0.000022 0.257106 1.867584 -15.675776 0.000000 0.000001 0.000000 12.360486 -0.116085 -2.298645 0.025524 0.593534 -4.924537 2.726123 -0.000014 -0.000004 0.238796 1.801091 -15.103551 2.620271 -0.000003 -0.000011 0.435645 2.414597 -20.451613 2.226891 -0.000016 0.000002 -0.000000 -0.000001 -0.000000 10.793261 -0.303558 -4.149971 0.738387 5.130728 -8.915160 2.734604 0.000006 -0.000004 0.367488 -1.838803 -19.209847 2.193982 0.000029 0.000009 0.607292 2.832126 -24.200344 1.975504 0.000021 -0.000002 0.000001 -0.000001 -0.000001 -6.140199 12.877682 -1.741290 0.162221 0.608331 -8.320996 -33.347039 54.695472 53.327750 -0.000012 114.765237 -0.000017 15.531398 1.385763 -15.763213 -4.237881 -1.241807 2.593902 -4.151974 -14.020105 -16.303798 -3.173714 -1.832338 1.832353 15.239955 -19.689465 21.606419 -2.734793 -1.578928 1.578943 -1.273760 0.137307 -2.094865 -2.254728 -1.301775 1.301785 0.000003 -0.000005 -0.000001 -12.582405 -0.171957 2.675182 0.064429 0.946253 -7.789323 -3.117424 -0.000006 0.000004 0.001815 -0.159727 1.310779 -2.856107 0.000027 0.000027 0.033601 -0.684122 5.622876 -2.534617 0.000016 -0.000014 -0.000000 0.000000 -0.000002 -12.213293 0.000007 0.000011 0.008814 0.350750 -2.879441 -3.479239 0.000026 0.000010 0.027037 -0.613879 5.044027 -3.226038 -0.000001 -0.000020 0.091712 -1.127865 9.296723 -2.928005 -0.000000 -0.000019 0.000001 0.000000 -0.000002 -12.155839 -0.109532 -2.139199 0.009917 -0.372005 3.053945 -2.821598 -0.000009 0.000004 0.108239 -1.224573 10.102222 -2.687708 -0.000012 -0.000001 0.203487 -1.673077 13.867666 -2.368394 -0.000003 0.000009 -0.000000 0.000000 0.000001 -10.912509 -0.137003 -4.154601 0.067404 -0.967789 7.967598 -2.640512 0.000001 0.000001 0.211924 -1.706922 14.154169 -2.149028 -0.000011 -0.000002 0.321692 -2.094376 17.462376 -1.888397 0.000001 0.000008 0.000002 -0.000001 -0.000000 8.078198 -5.402400 -0.535886 -3.079408 22.052743 19.546502 45.880597 9.353844 3.815271 -21.890790 19.767343 -9.974717 -9.986592 0.000002 0.000003 0.000000 -0.000001 0.000001 -8.078198 -5.402400 -0.751780 -91.081782 -21.904849 -31.198593 120.310244 -6.583876 5.140209 47.799675 -6.156934 3.724521 5.736859 0.000008 -0.000025 0.000000 0.000002 -0.000003 
